<svg xmlns="http://www.w3.org/2000/svg" width="24" height="24" viewBox="0 0 24 24">
  <g fill="none" fill-rule="evenodd">
    <circle cx="9" cy="9" r="9" fill="#E3212B" transform="translate(3 3)"/>
    <path fill="#FFF" d="M7,6.75 L7,4.25 C7,2.715 6.18,1.43 4.75,1.09 L4.75,0.75 C4.75,0.335 4.415,-3.55271368e-15 4,-3.55271368e-15 C3.585,-3.55271368e-15 3.25,0.335 3.25,0.75 L3.25,1.09 C1.815,1.43 1,2.71 1,4.25 L1,6.75 L0,7.75 L0,8.25 L8,8.25 L8,7.75 L7,6.75 Z M4,9.2495 C4.55,9.2495 5,8.8 5,8.2495 L3,8.2495 C3,8.8 3.445,9.2495 4,9.2495 Z" transform="translate(8 7)"/>
  </g>
</svg>
