<?xml version="1.0" standalone="no"?>
<svg xmlns="http://www.w3.org/2000/svg" xmlns:xlink="http://www.w3.org/1999/xlink" style="isolation:isolate" viewBox="0 0 64 64">
    <defs>
        <style type="text/css"><![CDATA[
            @keyframes sipscan-scale-animation {
                0% {
                    transform: scale(1);
                }

                50% {
                    transform: scale(0.75);
                }

                100% {
                    transform: scale(1);
                }
            }

            @keyframes sipscan-rotate-animation {
                0% {
                    transform: rotatez(0deg);
                }

                50% {
                    transform: rotatez(180deg);
                }

                100% {
                    transform: rotatez(360deg);
                }
            }

            #sipscan-black .animate {
                animation-duration: 1.6s;
                animation-timing-function: cubic-bezier(0, 0, 0, 0);
                animation-iteration-count: infinite;
                transform-origin: 50% 50%;
            }

            #sipscan-black .stroke-only {
                fill: none;
                stroke: #fff;
                stroke-width: 2.66;
                stroke-linecap: round;
                stroke-linejoin: round;
                stroke-miterlimit: 3;
            }

            #sipscan-black .fill-only {
                stroke: none;
                fill: #fff;
            }

            #sipscan-black #circles-group,
            #sipscan-black #bottle {
               animation-name: sipscan-scale-animation; 
            }

            #sipscan-black .circle {
               animation-name: sipscan-rotate-animation; 
            }

        ]]>
        </style>
    </defs>

    <g id="sipscan-black">
        <g id="circles-group" class="animate stroke-only">
            <g id="circle" class="circle animate">
                <g id="dots" class="fill-only">
                    <path d=" M 10.57 8.864 C 10.57 8.13 11.166 7.534 11.9 7.534 C 12.634 7.534 13.23 8.13 13.23 8.864 C 13.23 9.598 12.634 10.194 11.9 10.194 C 11.166 10.194 10.57 9.598 10.57 8.864 Z "/>
                    <path d=" M 53.787 52.08 C 53.787 51.346 54.382 50.75 55.117 50.75 C 55.851 50.75 56.447 51.346 56.447 52.08 C 56.447 52.814 55.851 53.41 55.117 53.41 C 54.382 53.41 53.787 52.814 53.787 52.08 Z "/>
                    <path d=" M 50.829 55.038 C 50.829 54.303 51.425 53.708 52.159 53.708 C 52.893 53.708 53.489 54.303 53.489 55.038 C 53.489 55.772 52.893 56.368 52.159 56.368 C 51.425 56.368 50.829 55.772 50.829 55.038 Z "/>
                    <path d=" M 10.572 55.038 C 10.572 54.303 11.168 53.708 11.902 53.708 C 12.636 53.708 13.232 54.303 13.232 55.038 C 13.232 55.772 12.636 56.368 11.902 56.368 C 11.168 56.368 10.572 55.772 10.572 55.038 Z "/>
                    <path d=" M 7.613 52.079 C 7.613 51.345 8.209 50.749 8.943 50.749 C 9.677 50.749 10.273 51.345 10.273 52.079 C 10.273 52.813 9.677 53.409 8.943 53.409 C 8.209 53.409 7.613 52.813 7.613 52.079 Z "/>
                    <path d=" M 7.613 11.821 C 7.613 11.087 8.209 10.491 8.943 10.491 C 9.677 10.491 10.273 11.087 10.273 11.821 C 10.273 12.555 9.677 13.151 8.943 13.151 C 8.209 13.151 7.613 12.555 7.613 11.821 Z "/>
                </g>    
                <path d=" M 32.03 11.96 C 34.655 11.96 37.255 12.477 39.68 13.482"/>
                <path d=" M 39.68 13.482 C 42.105 14.486 44.309 15.959 46.165 17.815"/>
                <path d=" M 46.165 17.815 C 48.022 19.671 49.494 21.875 50.499 24.3"/>
                <path d=" M 50.499 24.3 C 51.503 26.725 52.02 29.325 52.02 31.95"/>
                <path d=" M 52.02 31.95 C 52.02 34.575 51.503 37.175 50.499 39.6"/>
                <path d=" M 50.499 39.6 C 49.494 42.025 48.022 44.229 46.165 46.085"/>
                <path d=" M 46.165 46.085 C 44.309 47.941 42.105 49.414 39.68 50.418"/>
                <path d=" M 39.68 50.418 C 37.255 51.423 34.655 51.94 32.03 51.94"/>
                <path d=" M 32.03 51.94 C 29.405 51.94 26.806 51.423 24.38 50.418"/>
                <path d=" M 24.38 50.418 C 21.955 49.414 19.751 47.941 17.895 46.085"/>
                <path d=" M 17.895 46.085 C 16.039 44.229 14.567 42.025 13.562 39.6"/>
                <path d=" M 13.562 39.6 C 12.557 37.175 12.04 34.575 12.04 31.95"/>
                <path d=" M 13.562 24.3 C 14.567 21.875 16.039 19.671 17.895 17.815"/>
                <path d=" M 24.38 13.482 C 26.806 12.477 29.405 11.96 32.03 11.96"/>
                <path d=" M 32.03 6.64 C 35.354 6.64 38.645 7.295 41.716 8.567"/>
                <path d=" M 41.716 8.567 C 44.787 9.839 47.577 11.703 49.927 14.053"/>
                <path d=" M 49.927 14.053 C 52.277 16.403 54.142 19.194 55.414 22.264"/>
                <path d=" M 55.414 22.264 C 56.686 25.335 57.34 28.626 57.34 31.95"/>
                <path d=" M 57.34 31.95 C 57.34 35.274 56.686 38.565 55.414 41.636"/>
                <path d=" M 55.414 41.636 C 54.142 44.706 52.277 47.497 49.927 49.847"/>
                <path d=" M 49.927 49.847 C 47.577 52.197 44.787 54.061 41.716 55.333"/>
                <path d=" M 41.716 55.333 C 38.645 56.605 35.354 57.26 32.03 57.26"/>
                <path d=" M 32.03 57.26 C 28.707 57.26 25.415 56.605 22.345 55.333"/>
                <path d=" M 22.345 55.333 C 19.274 54.061 16.484 52.197 14.133 49.847"/>
                <path d=" M 14.133 49.847 C 11.783 47.497 9.919 44.706 8.647 41.636"/>
                <path d=" M 6.72 31.95 C 6.72 28.626 7.375 25.335 8.647 22.264"/>
                <path d=" M 8.647 22.264 C 9.919 19.194 11.783 16.403 14.133 14.053"/>
                <path d=" M 14.133 14.053 C 16.484 11.703 19.274 9.839 22.345 8.567"/>
                <path d=" M 22.345 8.567 C 25.415 7.295 28.707 6.64 32.03 6.64"/>
                <path d=" M 15.231 6.338 C 18.154 4.421 21.383 3.018 24.778 2.191"/>
                <path d=" M 59.691 18.795 C 61.193 21.951 62.142 25.341 62.5 28.818"/>
                <path d=" M 6.439 48.781 C 4.804 46.296 3.54 43.585 2.687 40.735"/>
                <path d=" M 2.687 40.735 C 1.834 37.885 1.4 34.925 1.4 31.95"/>
                <path d=" M 1.4 31.95 C 1.4 28.975 1.834 26.015 2.687 23.165"/>
                <path d=" M 2.687 23.165 C 3.54 20.315 4.804 17.604 6.439 15.119"/>
            </g>
        </g>

        <g id="bottle" class="animate fill-only">
            <path d=" M 33.603 20.908 C 33.654 21.016 33.773 21.299 33.804 21.393 C 33.834 21.486 33.859 21.594 33.747 21.655 C 33.635 21.716 33.621 21.742 33.62 21.869 C 33.62 21.995 33.623 22.2 33.629 22.48 C 33.637 22.889 33.658 23.234 33.751 23.869 C 33.879 24.733 33.916 24.63 34.101 25.21 C 34.286 25.79 34.365 25.882 34.651 26.608 C 34.938 27.333 35.124 27.945 35.293 28.534 C 35.411 28.942 35.297 28.895 35.285 29.04 C 35.272 29.185 35.279 29.288 35.298 29.473 C 35.317 29.657 35.489 30.59 35.525 31.307 C 35.561 32.024 35.564 33.32 35.555 33.417 C 35.547 33.513 35.56 33.613 35.577 33.687 C 35.595 33.762 35.648 33.869 35.625 34.159 C 35.603 34.449 35.46 35.773 35.337 36.67 C 35.215 37.567 35.139 37.931 35.106 38.54 C 35.072 39.148 35.161 39.898 35.254 40.335 C 35.347 40.772 35.562 41.396 35.608 41.912 C 35.654 42.427 35.662 42.849 35.634 43.078 C 35.607 43.306 35.552 43.495 35.529 43.545 C 35.506 43.595 35.433 43.641 35.403 43.707 C 35.372 43.773 35.213 43.926 35.14 43.973 C 35.06 44.025 34.852 44.094 34.806 44.102 C 34.759 44.111 34.659 44.138 34.641 44.141 C 34.596 44.146 34.569 44.164 34.533 44.17 C 34.498 44.175 34.475 44.176 34.434 44.176 C 34.391 44.175 34.358 44.186 34.332 44.191 C 34.287 44.201 34.214 44.187 34.175 44.2 C 34.154 44.208 34.079 44.24 34.033 44.231 C 33.987 44.222 33.95 44.243 33.908 44.248 C 33.892 44.25 33.843 44.238 33.808 44.248 C 33.773 44.258 33.653 44.273 33.62 44.27 C 33.588 44.267 33.521 44.256 33.489 44.27 C 33.457 44.285 33.362 44.286 33.332 44.283 C 33.302 44.28 33.261 44.286 33.231 44.292 C 33.202 44.298 33.102 44.299 33.061 44.292 C 33.02 44.285 32.986 44.299 32.952 44.301 C 32.917 44.302 32.831 44.315 32.799 44.301 C 32.767 44.287 32.707 44.302 32.677 44.305 C 32.646 44.308 32.554 44.312 32.528 44.301 C 32.502 44.289 32.447 44.291 32.402 44.301 C 32.356 44.31 32.287 44.327 32.257 44.309 C 32.228 44.292 32.194 44.299 32.157 44.305 C 32.12 44.311 32.008 44.307 31.986 44.296 C 31.965 44.285 31.905 44.283 31.877 44.296 C 31.85 44.309 31.763 44.316 31.72 44.301 C 31.677 44.285 31.645 44.269 31.611 44.283 C 31.576 44.297 31.501 44.321 31.454 44.296 C 31.406 44.272 31.357 44.272 31.322 44.283 C 31.288 44.294 31.194 44.294 31.148 44.274 C 31.102 44.255 31.043 44.271 31.017 44.274 C 30.99 44.278 30.907 44.275 30.881 44.261 C 30.855 44.248 30.784 44.245 30.754 44.257 C 30.725 44.269 30.657 44.265 30.632 44.253 C 30.607 44.24 30.548 44.248 30.514 44.248 C 30.481 44.248 30.399 44.244 30.366 44.235 C 30.332 44.226 30.294 44.232 30.257 44.235 C 30.219 44.238 30.184 44.235 30.134 44.222 C 30.084 44.209 30.06 44.221 30.029 44.222 C 29.998 44.223 29.912 44.199 29.876 44.2 C 29.841 44.201 29.783 44.203 29.732 44.187 C 29.682 44.171 29.577 44.162 29.558 44.161 C 29.538 44.16 29.381 44.129 29.348 44.126 C 29.315 44.123 29.237 44.101 29.199 44.095 C 29.162 44.09 29.142 44.079 29.099 44.069 C 29.056 44.059 29.029 44.033 28.998 44.03 C 28.968 44.027 28.916 44.008 28.898 43.999 C 28.88 43.99 28.855 43.955 28.828 43.943 C 28.801 43.93 28.763 43.893 28.749 43.873 C 28.735 43.852 28.613 43.743 28.579 43.68 C 28.545 43.618 28.474 43.519 28.409 43.139 C 28.344 42.758 28.32 42.574 28.404 41.99 C 28.489 41.406 28.632 40.908 28.728 40.558 C 28.823 40.207 28.937 39.851 28.985 39.317 C 29.033 38.784 29.002 38.294 28.911 37.623 C 28.82 36.951 28.717 36.048 28.614 35.364 C 28.511 34.681 28.446 34.193 28.452 34.019 C 28.459 33.845 28.473 33.752 28.514 33.644 C 28.554 33.536 28.541 33.345 28.54 33.32 C 28.538 33.297 28.512 31.805 28.592 30.971 C 28.673 30.137 28.796 29.436 28.815 29.311 C 28.834 29.186 28.851 29.104 28.828 29.032 C 28.805 28.958 28.751 28.91 28.771 28.743 C 28.791 28.576 28.93 28.052 29.073 27.616 C 29.216 27.181 29.432 26.623 29.667 26.035 C 29.902 25.448 30.144 24.882 30.257 24.262 C 30.369 23.642 30.422 23.155 30.431 22.72 C 30.441 22.286 30.457 22.041 30.453 22.008 C 30.449 21.976 30.436 21.904 30.436 21.838 C 30.435 21.772 30.444 21.72 30.418 21.711 C 30.392 21.703 30.28 21.677 30.235 21.572 C 30.204 21.501 30.255 21.338 30.322 21.183 C 30.39 21.027 30.501 20.805 30.509 20.613 C 30.398 20.587 30.371 20.572 30.355 20.563 C 30.339 20.554 30.336 20.511 30.347 20.455 C 30.357 20.398 30.372 20.254 30.376 20.188 C 30.38 20.121 30.405 19.973 30.43 19.933 C 30.456 19.894 30.58 19.808 30.93 19.75 C 31.281 19.692 31.574 19.683 32.015 19.683 C 32.557 19.683 33.136 19.713 33.387 19.817 C 33.637 19.92 33.657 20.09 33.674 20.183 C 33.691 20.277 33.697 20.523 33.699 20.567 C 33.702 20.611 33.695 20.625 33.541 20.65 C 33.546 20.75 33.551 20.799 33.603 20.908 Z "/>
        </g>
    </g>
</svg>